PathFileType	4	(X/Y/Z)	60_1_33_p1_0-250.trc
DataRate	CameraRate	NumFrames	NumMarkers	Units	OrigDataRate	OrigDataStartFrame	OrigNumFrames
46.0	46.0	7	27	m	46.0	62	251
Frame#	Time	RHip			RKnee			RAnkle			RBigToe			RSmallToe			RHeel			LHip			LKnee			LAnkle			LBigToe			LSmallToe			LHeel			Neck			Head			Nose			RShoulder			RElbow			RWrist			RThumb			RIndex			RPinky			LShoulder			LElbow			LWrist			LThumb			LIndex			LPinky			
		X1	Y1	Z1	X2	Y2	Z2	X3	Y3	Z3	X4	Y4	Z4	X5	Y5	Z5	X6	Y6	Z6	X7	Y7	Z7	X8	Y8	Z8	X9	Y9	Z9	X10	Y10	Z10	X11	Y11	Z11	X12	Y12	Z12	X13	Y13	Z13	X14	Y14	Z14	X15	Y15	Z15	X16	Y16	Z16	X17	Y17	Z17	X18	Y18	Z18	X19	Y19	Z19	X20	Y20	Z20	X21	Y21	Z21	X22	Y22	Z22	X23	Y23	Z23	X24	Y24	Z24	X25	Y25	Z25	X26	Y26	Z26	X27	Y27	Z27	
62	1.3478260869565217	0.3530324236229767	0.48701909085890743	-0.20606426787643323	0.3451248171855723	0.6609593486494488	0.17441187280166187	0.3188023758811574	0.9030225629596088	0.5743882072324247	0.292813247459402	0.6746742882222218	0.6980420527624718	0.3570259503530212	0.7275570496881073	0.6857299494833156	0.2954465499142584	0.9500524593968254	0.6039360287305497	0.1744885953497921	0.5344208622959296	-0.23207512368980432	0.1556679180028876	0.7239103583486043	0.1762974415146488	0.16084562106243833	0.8877351607596611	0.5567887781440508	0.13549122593969068	0.6568713876976691	0.6840573138442748	0.07709287248209443	0.696183082050797	0.6661320214509202	0.16560644174937103	0.9206531663903789	0.5968571870018572	0.32401885393317564	0.3332837248090234	-0.7263609383796976	0.30429263754134256	0.10452824987428028	-0.935550356998723	0.26135640447395997	0.20173150815954458	-0.7833462875304191	0.46156068895388586	0.285440441119738	-0.6350809961053616	0.42333022545721605	0.2550927298261347	-0.35578210260137816	0.22853774080159472	0.21091105849888916	-0.45593721311380014	0.1050063392773281	0.22001344470791834	-0.4775386136245169	0.08074602569671176	0.2462639730070089	-0.46817474550953725	0.11050905247751441	0.2228213806237143	-0.4274325593301793	0.1727509818579547	0.3753088232935611	-0.7091488082006672	0.05739798122255945	0.3227132877508031	-0.48175167975137695	-0.03525938728516912	0.19711822219574673	-0.2513560906060217	-0.03806861454905792	0.1814364375480158	-0.13648625161657135	-0.057691522836084856	0.17816509502466404	-0.12870473384113387	-0.09526967236216755	0.23040339497405515	-0.13354902357437223
63	1.3695652173913044	0.35236004533208665	0.4843737366152244	-0.2139421908377913	0.344596167518263	0.6624998701245386	0.17803174867122665	0.31875225834351356	0.9027786134802348	0.5743248619079395	0.29297666966688524	0.6748380117694258	0.697791789963096	0.36158617014976974	0.7420800155091056	0.6925835638278028	0.29446085580490117	0.9463776485669589	0.6029983478709009	0.17154482724650896	0.5184943485099979	-0.23545197257965064	0.1556894725739098	0.7241312924503516	0.17590053522922933	0.1618700928110831	0.8858508878931639	0.5525461363277816	0.13550950466862904	0.6570232132730246	0.683827723238249	0.07222333897586485	0.7118604889629768	0.6693021985626556	0.16569038536957312	0.9208284085635003	0.5966755578791638	0.3236859577693523	0.33333895842695555	-0.7258742816579744	0.3043978350061649	0.10451346806367483	-0.9329491643988782	0.265026189107052	0.19016488091878297	-0.7803689738311105	0.46154642442067945	0.2854694297792526	-0.6352379310013536	0.42318359045570797	0.2538304708050622	-0.35967467983065105	0.2252388920761847	0.210674026950239	-0.45907622154926014	0.13094448183707225	0.25400436495406414	-0.49916828195881713	0.11284762591124735	0.2202213737566268	-0.4774709744928692	0.1225416082774362	0.20580727199231333	-0.45340951719911954	0.17269843788879952	0.3753872824191294	-0.7093147367649192	0.06204216358574949	0.32296648593878463	-0.4857691001115261	-0.02601730523553801	0.18709413434462446	-0.2539009080385423	-0.032907141647731085	0.1705172410214782	-0.1362702213961844	-0.04803306904006268	0.16874901979794066	-0.12829186367670772	-0.08812139012736903	0.20956090688057472	-0.13311036493221853
64	1.391304347826087	0.3479734600975314	0.5002639693614507	-0.2110587748682803	0.34463162266596287	0.6627651915547783	0.1782415161608168	0.3188100192198661	0.9027309039651935	0.5743871757922285	0.29302525108439065	0.6747026660818649	0.6979805553910302	0.36154680394648075	0.7418048007938838	0.6927409173452608	0.2956597646706558	0.9498946005352068	0.6079066928453389	0.17465712577680026	0.534042403267	-0.23222719968556374	0.156408791199835	0.7227582239551877	0.17222150422949567	0.1620912587834334	0.8855432819705015	0.5567889173605604	0.13560506668241296	0.6572168334406796	0.6836775125015817	0.07741261645780766	0.6965584152378458	0.6656575246116524	0.16569543976524714	0.9209414020399873	0.5964294746133814	0.32349559701005554	0.33373168821624577	-0.7257462045215398	0.30440704286777354	0.10442670879582092	-0.933144397705592	0.2651482787918493	0.19008464537240535	-0.7801298392860965	0.45726481477857056	0.2841154294590028	-0.6349451974274354	0.41891416619950894	0.25186344801397814	-0.3633107117021956	0.22607184772368902	0.21667582453016954	-0.44543538967379737	0.15809815979974515	0.2729366397332806	-0.503683411744042	0.13897586859895258	0.2605077305631814	-0.4915030513848291	0.13469765660042088	0.21564634841412744	-0.4411680700086618	0.17280116544141388	0.3777936558044647	-0.7013452173069661	0.058339791658336144	0.30943046721747514	-0.4760863983858386	-0.02663461249907929	0.1886621897578928	-0.24318809780112466	-0.03074402263244107	0.18088807642667987	-0.13610341172401466	-0.04443517822746206	0.1711718345576727	-0.12469412625594836	-0.07444560224512432	0.20435272172905108	-0.12931527594266634
65	1.4130434782608696	0.3517702407380218	0.48552668826477396	-0.21032316494303108	0.3438342425766526	0.6645989215305007	0.18258933278630068	0.31860059632588406	0.9027400734010604	0.5745706866279823	0.2930377725717069	0.6744879544812222	0.6980613328669467	0.3616520301324036	0.7417112315309428	0.6926937848105298	0.29554842403814663	0.9494490165823578	0.6080777381456586	0.17436051039803668	0.5343661439052626	-0.22890958252186577	0.15487626273778565	0.721253728240936	0.1723642724631662	0.16103488956614306	0.8873439930110779	0.5611774845559362	0.13565411819535583	0.657111407167622	0.6836919703182669	0.07745331968863885	0.6963290320286326	0.6656457572213622	0.16595030469330496	0.9201647597390522	0.5999777530844087	0.3234818056357722	0.33465398999118817	-0.7259153447695619	0.30446622932810324	0.10554524031410877	-0.9301089929872928	0.2651001413415542	0.18999337683214826	-0.7799530998916303	0.45735625115724254	0.2843156582659608	-0.6348060777652839	0.4225514376858385	0.2515541850252208	-0.36662688486532496	0.2350420090092778	0.2134507572571713	-0.41572475744740983	0.15735320805733127	0.2735225456131956	-0.49429931143224953	0.14979524119003498	0.23773568924885893	-0.48123698046794305	0.15097482319912486	0.19320561722967447	-0.42375684854879353	0.17272506026531237	0.3779368295423675	-0.7014260876966646	0.06240241977505681	0.3115091696813165	-0.4766423097649059	-0.02331367931776828	0.2007099968659078	-0.2442327665022577	-0.030346141314655548	0.1802962346813405	-0.13625251151951914	-0.039726644014172086	0.16008474756247898	-0.1241726070595958	-0.06078249373949434	0.18059593721807496	-0.13196212676057245
66	1.434782608695652	0.3516270917640583	0.4857281527982605	-0.2101779363666697	0.3438338883249111	0.6643404026083919	0.18237842307934712	0.3175005041646493	0.8992739423974042	0.5697476781490561	0.2931746494673697	0.6750658945473037	0.6973871235806877	0.361899782752775	0.7427861279496413	0.6922477781613559	0.2944143825612531	0.9461229334383662	0.60282605918696	0.17125574396533597	0.5197514671224657	-0.22809263219530349	0.15568268976278324	0.7199230828748931	0.16842809005311105	0.16129183385976584	0.8871592103762227	0.565245617134218	0.1356449552071075	0.6573666324616051	0.6838236197114609	0.08033657587363056	0.7127515238619477	0.669015420090584	0.165913808700715	0.920220691178092	0.6000289038159075	0.31916458125485264	0.3344489128007087	-0.728883191800851	0.3045023853928063	0.10561445991237332	-0.9300471184972589	0.2620881402014342	0.17865834362680946	-0.7769280165273557	0.4570745165650963	0.2843012764951034	-0.6351683046807718	0.4175120919559045	0.24716494543989967	-0.37270877613749115	0.22470906525797463	0.214789446771693	-0.40580358354186297	0.14985525899826882	0.2664506758655746	-0.5003911397419093	0.1330215634433164	0.230395560171029	-0.49480767318913355	0.1503483387740565	0.28348727808980456	-0.44378596398487236	0.16814597073571827	0.39155150334428257	-0.7044056705639392	0.06681255607089732	0.3130989681181187	-0.47715614210450136	-0.019848151864459276	0.20264159757238726	-0.2406077955533479	-0.02559992454491848	0.16907534553377299	-0.1357348245500643	-0.039056205675941626	0.1610104390710444	-0.12098283583388458	-0.05603148542793035	0.16657776951472467	-0.13498463449784234
67	1.4565217391304348	0.3528274778789079	0.4870726540386747	-0.20965705398766157	0.34455037771634045	0.6626581591088091	0.17835116192485695	0.3185295705859214	0.9027543151933496	0.5746822871830974	0.29315875212811454	0.6756386794682943	0.6969855366146837	0.3577717808594074	0.7294073192616868	0.6891932807116634	0.29450319649188383	0.94669466638261	0.602802198680853	0.17570274694381383	0.5197571883514301	-0.23209419996134478	0.15629854544574961	0.7227295922295519	0.1725649648968197	0.16102828874320613	0.8874737771372387	0.561198220238287	0.1355972804297248	0.657359785371234	0.6836784433309665	0.0753922211680285	0.7285922001849827	0.6724529121784047	0.16584836976026895	0.920467925522438	0.6003695931959042	0.31925078282331965	0.33471133816001264	-0.724969161611402	0.30450600603969497	0.10572624234234249	-0.9327521842495096	0.26209318226922	0.17849219400892405	-0.7768948581217324	0.4576429733661655	0.2855155029434643	-0.6358284202560698	0.4226591087320461	0.2528406540520703	-0.36311882989109645	0.21652617632407856	0.15539577718858041	-0.3788935754871771	0.11574552442344506	0.18669562558219444	-0.4585198712425051	0.10906786529601022	0.17691507514545446	-0.45301272416962635	0.09709518006637514	0.14969929301009155	-0.3795772538764479	0.16180022447841244	0.3649229728725127	-0.6986197535409133	0.06279070261054005	0.31181878289027704	-0.4762759335715546	-0.0038510458021155923	0.2064470662979737	-0.24483388983974733	-0.002737479764709852	0.12471122470796386	-0.13498901750981945	-0.034159964994340423	0.14943272644726407	-0.12086323823739266	-0.04474488032349759	0.1701458095382937	-0.13149586694095053
68	1.4782608695652173	0.35288559596201635	0.48764766742729315	-0.20963114832029636	0.3446876184585528	0.6626761753764825	0.1780537420756642	0.31859793625423116	0.9029904076728005	0.5747149172595413	0.29290140618420524	0.6746875050237261	0.6982087122851172	0.3613563146991808	0.741886194191198	0.6930270489366571	0.29548706291861143	0.94955152972204	0.608346853115836	0.17188219362415905	0.5210321494802694	-0.23139150971591976	0.15636417567702252	0.7223550950764861	0.17265662031073478	0.16109594900473326	0.8875247376082608	0.561037086172305	0.13553980138701388	0.6572668950486876	0.6838731751815242	0.07525947740513823	0.7283960885222052	0.6726132295938947	0.16590355629466724	0.9205078174414391	0.6004507281119815	0.3190894518183852	0.33501563854779026	-0.725010279470712	0.30444842367593705	0.1057684482755995	-0.929988195334367	0.26215970396725324	0.17970915998189546	-0.7734744814289517	0.4575881241405154	0.2853516701163561	-0.6359560490693759	0.42775752497251146	0.2646547484487026	-0.364829374658876	0.22557157200723765	0.12302245056778469	-0.3680296616567347	0.10800033081164759	0.09672697336405565	-0.42973366084541514	0.08554835332172538	0.1040308419511733	-0.39654177609691416	0.0980676743031207	0.09787360434053571	-0.3524822883204212	0.16514422398422204	0.3776749151422118	-0.705042415306178	0.06245658904437435	0.3188578371182177	-0.4662566282814513	0.00020474390131097056	0.2104521208335936	-0.23750028322072644	0.004538343703119617	0.12437959522423832	-0.1349606600321161	-0.027789742554312026	0.14856796919538018	-0.12123041784363274	-0.04405506731596239	0.17179792222645085	-0.12849646757785033
